<svg xmlns:xlink="http://www.w3.org/1999/xlink" xmlns="http://www.w3.org/2000/svg" version="1.1" id="Layer_1" x="0px" y="0px" viewBox="0 0 146.5 147" style="enable-background: new 0 0 146.5 147">
<style type="text/css">
	.st0{fill:#E60000;}
</style>

<g>
	<path class="st0" d="M109.7,76.5L30.6,50.8c-2.4-0.8-4.9-0.6-7.2,0.6c-2.2,1.1-3.9,3.1-4.7,5.5l-0.5,1.7c0,0,0,0,0,0l-15.3,47   c-0.8,2.4-0.6,4.9,0.6,7.2c1.1,2.2,3.1,3.9,5.5,4.7l54.5,17.7c0.3,0.1,0.6,0.1,0.9,0.1c1.3,0,2.4-0.8,2.9-2.1   c0.5-1.6-0.4-3.3-1.9-3.8l-54.5-17.7c-0.9-0.3-1.6-0.9-2-1.7c-0.4-0.8-0.5-1.7-0.2-2.6l13.6-41.7l29.6,37.5   c1.8,2.3,4.5,3.6,7.4,3.6c0.8,0,1.7-0.1,2.6-0.4l46-12.9l-7.6,23.5c-0.5,1.6,0.4,3.3,1.9,3.8c1.6,0.5,3.3-0.4,3.8-1.9l9.9-30.4   c0.8-2.4,0.6-4.9-0.6-7.2S112.1,77.3,109.7,76.5z M60.1,100.6c-1.3,0.4-2.7-0.1-3.6-1.2L24.4,58.8l0-0.1c0.3-0.9,0.9-1.6,1.7-2   c0.8-0.4,1.7-0.5,2.6-0.2l79.1,25.7c1.8,0.6,2.8,2.5,2.2,4.3l0,0.1L60.1,100.6z" />
	<path class="st0" d="M97.5,133.7l-6.9-2.2l2.2-6.9c0.5-1.6-0.4-3.3-1.9-3.8c-1.6-0.5-3.3,0.4-3.8,1.9l-2.2,6.9l-6.9-2.2   c-1.6-0.5-3.3,0.4-3.8,1.9c-0.5,1.6,0.4,3.3,1.9,3.8l6.9,2.2l-2.2,6.9c-0.5,1.6,0.4,3.3,1.9,3.8c0.3,0.1,0.6,0.1,0.9,0.1   c1.3,0,2.4-0.8,2.9-2.1l2.2-6.9l6.9,2.2c0.3,0.1,0.6,0.1,0.9,0.1c1.3,0,2.4-0.8,2.9-2.1C100,135.9,99.1,134.3,97.5,133.7z" />
	<path class="st0" d="M143.7,40.8c-0.9-1.4-2.7-1.9-4.1-1l-27.9,16.8c-1.4,0.9-1.9,2.7-1,4.1c0.6,0.9,1.6,1.5,2.6,1.5   c0.5,0,1.1-0.1,1.5-0.4l27.9-16.8C144.1,44,144.5,42.2,143.7,40.8z" />
	<path class="st0" d="M35.6,36c0.5,1.1,1.6,1.8,2.8,1.8c0.4,0,0.8-0.1,1.2-0.2c1.5-0.6,2.2-2.4,1.6-3.9l-12.7-30   C27.8,2.1,26,1.4,24.5,2c-1.5,0.6-2.2,2.4-1.6,3.9L35.6,36z" />
	<path class="st0" d="M78.1,39.2c0.3,0.1,0.6,0.1,0.9,0.1c1.3,0,2.4-0.8,2.9-2.1L91.5,8c0.5-1.6-0.4-3.3-1.9-3.8   c-1.6-0.5-3.3,0.4-3.8,1.9l-9.5,29.3C75.7,37,76.6,38.7,78.1,39.2z" />
</g>
</svg>