<svg id="Layer_1" data-name="Layer 1" xmlns="http://www.w3.org/2000/svg" viewBox="0 0 200 200"><defs><style>.cls-1{fill:#fcc;}</style></defs><title>Prdct</title><path class="cls-1" d="M51.78,161.47v8.66a2.2,2.2,0,0,0,2.2,2.2h.42a2.2,2.2,0,0,0,2.2-2.2v-9.86a2.39,2.39,0,0,0-.3-1.17l-21.68-39a16.94,16.94,0,0,1-2.12-8.2V64.82a2.21,2.21,0,0,1,.71-1.62c4.12-3.79,8.94-.94,8.94,3v33.84a2.33,2.33,0,0,1-.47,1.36A9.16,9.16,0,0,0,42.29,113l18.28,20.11a2.2,2.2,0,0,0,3.11.15L64,133a2.2,2.2,0,0,0,.15-3.11L45.86,109.74a4.38,4.38,0,0,1,.14-6,4.49,4.49,0,0,1,3.21-1.28,4.36,4.36,0,0,1,3.13,1.45l16.92,18.81a3.39,3.39,0,0,0,.72.55A30.9,30.9,0,0,1,85.53,150v20.16a2.2,2.2,0,0,0,2.2,2.2h.42a2.2,2.2,0,0,0,2.2-2.2V148.22H90.3A35.81,35.81,0,0,0,72.88,119.3a2.11,2.11,0,0,1-.49-.4L55.95,100.63a9.13,9.13,0,0,0-6.6-3,9.27,9.27,0,0,0-2.39.28h0V62.46A2.15,2.15,0,0,0,46.37,61C38,52.19,27.66,58,27.66,66.24v45.64a21.76,21.76,0,0,0,2.73,10.54l21.1,38A2.2,2.2,0,0,1,51.78,161.47Z"/><path class="cls-1" d="M153.69,60.91a2.36,2.36,0,0,0-.64,1.64V97.61a.21.21,0,0,1-.26.2,9,9,0,0,0-8.74,2.82l-16.41,18.24a2.32,2.32,0,0,1-.54.44,35.73,35.73,0,0,0-17.4,28.91h-.06v21.7a2.41,2.41,0,0,0,2.41,2.41h0a2.41,2.41,0,0,0,2.41-2.41V150a30.94,30.94,0,0,1,15.64-26.83,2.41,2.41,0,0,0,.61-.48l16.91-18.81a4.36,4.36,0,0,1,3.13-1.45,4.44,4.44,0,0,1,3.21,1.28,4.38,4.38,0,0,1,.14,6L136,129.69a2.41,2.41,0,0,0,.16,3.4h0a2.41,2.41,0,0,0,3.41-.16L157.71,113a9.16,9.16,0,0,0,.64-11.54,2.32,2.32,0,0,1-.47-1.36c0-4.71,0-29.87,0-35.18a2.38,2.38,0,0,1,.77-1.77c4.11-3.7,8.87-.86,8.87,3.1v45.38a17,17,0,0,1-2.36,8.62l-21.46,38.87a2.41,2.41,0,0,0-.29,1.16v9.64a2.41,2.41,0,0,0,2.41,2.41h0a2.41,2.41,0,0,0,2.41-2.41v-8.4a2.41,2.41,0,0,1,.3-1.16l20.82-37.73a21.72,21.72,0,0,0,3-11V66.24C172.34,58,162.08,52.22,153.69,60.91Z"/><path class="cls-1" d="M140.92,51.15c0-.07-.07-.12-.1-.19a1.86,1.86,0,0,0-.17-.39c0-.07-.1-.12-.12-.19l-.24-.31-.19-.14-.29-.24h0L101.21,28a2.42,2.42,0,0,0-2.36,0L60.26,49.67h0a3.54,3.54,0,0,0-.31.24,1,1,0,0,1-.19.14l-.24.31c0,.07-.1.12-.12.19a1.86,1.86,0,0,0-.17.39c0,.07-.07.12-.07.19a1.81,1.81,0,0,0-.12.63V94.55a2.42,2.42,0,0,0,1.21,2.1l38.58,22.3a1.54,1.54,0,0,0,.46.19s.07,0,.12,0a2.22,2.22,0,0,0,1.25,0s.07,0,.12,0a1.54,1.54,0,0,0,.46-.19l38.58-22.3a2.42,2.42,0,0,0,1.21-2.1V51.77A2.63,2.63,0,0,0,140.92,51.15ZM100,32.84l13.31,7.47L79.65,59.25,66.34,51.77ZM97.59,112.7,63.83,93.17V55.9l33.76,19Zm2.41-42L84.57,62l33.66-18.93,15.43,8.68Zm36.17,22.47L102.41,112.7V74.87l33.76-19Z"/><path class="cls-1" d="M80.71,62.79V77c0,2.38-2,3.88-3.66,2.72h0A3.33,3.33,0,0,1,75.79,77V62.79c0-2.39,2-3.89,3.67-2.72h0A3.33,3.33,0,0,1,80.71,62.79Z"/><path class="cls-1" d="M119.24,62.43V77c0,2.43,2,4,3.66,2.78h0A3.43,3.43,0,0,0,124.16,77V62.43c0-2.44-2-4-3.67-2.77h0A3.43,3.43,0,0,0,119.24,62.43Z"/><polygon class="cls-1" points="76.66 41.1 116.98 63.54 123.34 61.3 83.02 38.86 76.66 41.1"/></svg>